<svg width="38" height="38" viewBox="0 0 38 38" fill="none" xmlns="http://www.w3.org/2000/svg">
<path d="M28.3874 38H9.60798C4.31004 38 0 33.6894 0 28.3863V9.60914C0 4.31056 4.31004 4.61029e-08 9.60798 0H21.3802C22.1062 0 22.6989 0.588221 22.6989 1.3189C22.6989 2.04958 22.1108 2.6378 21.3802 2.6378H9.60798C5.76203 2.6378 2.63289 5.76732 2.63289 9.61374V28.3863C2.63289 32.2327 5.76203 35.3622 9.60798 35.3622H28.3874C32.2334 35.3622 35.3625 32.2327 35.3625 28.3863V15.9877C35.3625 15.2616 35.9507 14.6688 36.6813 14.6688C37.4073 14.6688 38 15.257 38 15.9877V28.3863C37.9954 33.6894 33.6854 38 28.3874 38Z" fill="white"/>
<path d="M36.9254 2.25889L35.7326 1.0721C34.3293 -0.324122 32.084 -0.361355 30.7275 0.988329L13.7897 17.8408C12.7466 18.8786 11.9888 20.1864 11.6052 21.6199L11.0907 23.5327C10.8334 24.4914 11.1328 25.5247 11.8718 26.2274C12.4004 26.7301 13.0927 27 13.7944 27C14.0657 27 14.3417 26.9581 14.6036 26.8743L16.5214 26.2693C17.8125 25.8644 18.9959 25.1477 19.9408 24.2076L37.0003 7.23411C38.3661 5.88908 38.324 3.65512 36.9254 2.25889ZM18.051 22.3273C17.4055 22.9696 16.5963 23.4582 15.7169 23.7328L13.799 24.3379C13.7803 24.3472 13.7382 24.3146 13.7242 24.3006C13.7242 24.3006 13.6727 24.2541 13.6821 24.2215L14.1966 22.3087C14.4586 21.3267 14.9778 20.4331 15.6841 19.7257L29.3055 6.17298L31.794 8.64895L18.051 22.3273ZM35.1105 5.3492L33.6885 6.76405L31.2 4.28807L32.622 2.87323C32.7623 2.73361 32.9541 2.6638 33.1506 2.6638C33.3891 2.6638 33.6417 2.76153 33.8335 2.95701L35.0263 4.1438C35.3865 4.49751 35.4239 5.04204 35.1105 5.3492Z" fill="white"/>
</svg>
