<svg width="37" height="37" viewBox="0 0 37 37" fill="none" xmlns="http://www.w3.org/2000/svg">
<path d="M18.5 0C28.7175 0 37 8.28244 37 18.5C37 22.9418 35.434 27.0192 32.8245 30.2077L30.192 27.5742C32.211 24.9808 33.305 21.7867 33.3 18.5C33.3 10.3258 26.6742 3.7 18.5 3.7C10.3258 3.7 3.7 10.3258 3.7 18.5C3.7 26.6742 10.3258 33.3 18.5 33.3C21.7867 33.305 24.9808 32.211 27.5743 30.192L30.2077 32.8245C26.9067 35.5306 22.7684 37.0065 18.5 37C8.28245 37 0 28.7175 0 18.5C0 8.28244 8.28245 0 18.5 0ZM25.0407 11.4173L27.6566 14.0341L15.8841 25.8066L9.34342 19.2668L11.9593 16.65L15.8841 20.5748L25.0416 11.4173H25.0407Z" fill="white"/>
</svg>
